<svg xmlns="http://www.w3.org/2000/svg" xmlns:xlink="http://www.w3.org/1999/xlink" version="1.1" width="1000" height="1000" viewBox="0 0 1000 1000" xml:space="preserve">
<desc>Created with Fabric.js 3.5.0</desc>
<defs>
</defs>
<rect x="0" y="0" width="100%" height="100%" fill="#ffffff"/>
<g transform="matrix(3.0692 0 0 3.0692 604.1764 120.7219)" id="15454">
<g style="" vector-effect="non-scaling-stroke">
		<g transform="matrix(0.1333 0 0 -0.1333 -57.3733 -18.051)">
<path style="stroke: none; stroke-width: 1; stroke-dasharray: none; stroke-linecap: butt; stroke-dashoffset: 0; stroke-linejoin: miter; stroke-miterlimit: 4; is-custom-font: none; font-file-url: none; fill: rgb(0,0,0); fill-rule: nonzero; opacity: 1;" transform=" translate(-1069.7076, -430.375)" d="M 1043 444 c -3 -8 2 -23 11 -32 c 15 -15 17 -15 32 0 c 21 21 11 48 -16 48 c -11 0 -23 -7 -27 -16 z" stroke-linecap="round"/>
</g>
		<g transform="matrix(0.1333 0 0 -0.1333 -140.8568 -5.5106)">
<path style="stroke: none; stroke-width: 1; stroke-dasharray: none; stroke-linecap: butt; stroke-dashoffset: 0; stroke-linejoin: miter; stroke-miterlimit: 4; is-custom-font: none; font-file-url: none; fill: rgb(0,0,0); fill-rule: nonzero; opacity: 1;" transform=" translate(-443.5977, -336.3015)" d="M 415 429 c -4 -12 -22 -38 -41 -59 c -28 -31 -32 -39 -20 -49 c 11 -9 20 -4 44 24 c 25 28 39 35 67 35 c 24 0 35 -5 35 -15 c 0 -22 -66 -91 -101 -105 c -27 -12 -29 -15 -15 -28 c 13 -13 18 -12 48 6 c 46 28 74 60 93 104 c 24 60 21 68 -29 68 c -35 0 -45 4 -49 20 c -7 26 -24 26 -32 -1 z" stroke-linecap="round"/>
</g>
		<g transform="matrix(0.1333 0 0 -0.1333 -69.3364 -5.3368)">
<path style="stroke: none; stroke-width: 1; stroke-dasharray: none; stroke-linecap: butt; stroke-dashoffset: 0; stroke-linejoin: miter; stroke-miterlimit: 4; is-custom-font: none; font-file-url: none; fill: rgb(0,0,0); fill-rule: nonzero; opacity: 1;" transform=" translate(-980, -335)" d="M 890 345 c 0 -112 3 -115 109 -115 c 61 0 71 2 71 18 c 0 15 -10 17 -72 17 c -71 0 -73 1 -76 26 c -3 25 2 29 60 48 c 83 28 93 34 75 49 c -11 10 -27 7 -71 -13 c -31 -14 -59 -25 -61 -25 c -3 0 -5 20 -5 45 c 0 33 -4 45 -15 45 c -12 0 -15 -17 -15 -95 z" stroke-linecap="round"/>
</g>
		<g transform="matrix(0.1333 0 0 -0.1333 1.8719 -4.9045)">
<path style="stroke: none; stroke-width: 1; stroke-dasharray: none; stroke-linecap: butt; stroke-dashoffset: 0; stroke-linejoin: miter; stroke-miterlimit: 4; is-custom-font: none; font-file-url: none; fill: rgb(0,0,0); fill-rule: nonzero; opacity: 1;" transform=" translate(-1514.0535, -331.7569)" d="M 1540 377 c 0 -71 -15 -101 -61 -120 c -21 -9 -26 -16 -20 -26 c 14 -21 69 5 92 43 c 25 40 28 166 4 166 c -12 0 -15 -14 -15 -63 z" stroke-linecap="round"/>
</g>
		<g transform="matrix(0.1333 0 0 -0.1333 -35.1377 -10.7908)">
<path style="stroke: none; stroke-width: 1; stroke-dasharray: none; stroke-linecap: butt; stroke-dashoffset: 0; stroke-linejoin: miter; stroke-miterlimit: 4; is-custom-font: none; font-file-url: none; fill: rgb(0,0,0); fill-rule: nonzero; opacity: 1;" transform=" translate(-1236.4942, -375.9168)" d="M 1130 415 c 0 -12 16 -15 86 -15 l 86 0 l -16 -22 c -23 -32 -29 -48 -22 -55 c 8 -9 55 36 72 69 c 18 35 8 38 -112 38 c -77 0 -94 -3 -94 -15 z" stroke-linecap="round"/>
</g>
		<g transform="matrix(0.1333 0 0 -0.1333 -9.3341 -9.3356)">
<path style="stroke: none; stroke-width: 1; stroke-dasharray: none; stroke-linecap: butt; stroke-dashoffset: 0; stroke-linejoin: miter; stroke-miterlimit: 4; is-custom-font: none; font-file-url: none; fill: rgb(0,0,0); fill-rule: nonzero; opacity: 1;" transform=" translate(-1430, -365)" d="M 1410 365 c 0 -58 2 -65 20 -65 c 18 0 20 7 20 65 c 0 58 -2 65 -20 65 c -18 0 -20 -7 -20 -65 z" stroke-linecap="round"/>
</g>
		<g transform="matrix(0.1333 0 0 -0.1333 34.3686 -10.6685)">
<path style="stroke: none; stroke-width: 1; stroke-dasharray: none; stroke-linecap: butt; stroke-dashoffset: 0; stroke-linejoin: miter; stroke-miterlimit: 4; is-custom-font: none; font-file-url: none; fill: rgb(0,0,0); fill-rule: nonzero; opacity: 1;" transform=" translate(-1757.7918, -375)" d="M 1650 415 c 0 -12 16 -15 85 -15 c 47 0 85 -3 85 -7 c 0 -4 -9 -17 -21 -29 c -20 -21 -19 -44 1 -44 c 14 0 72 89 65 100 c -3 6 -52 10 -111 10 c -86 0 -104 -3 -104 -15 z" stroke-linecap="round"/>
</g>
		<g transform="matrix(0.1333 0 0 -0.1333 60.9736 -13.1682)">
<path style="stroke: none; stroke-width: 1; stroke-dasharray: none; stroke-linecap: butt; stroke-dashoffset: 0; stroke-linejoin: miter; stroke-miterlimit: 4; is-custom-font: none; font-file-url: none; fill: rgb(0,0,0); fill-rule: nonzero; opacity: 1;" transform=" translate(-1957.3132, -393.7529)" d="M 1917 423 c -13 -12 -7 -19 33 -45 c 32 -22 41 -24 50 -13 c 9 11 3 19 -29 39 c -45 29 -45 29 -54 19 z" stroke-linecap="round"/>
</g>
		<g transform="matrix(0.1333 0 0 -0.1333 -105.1489 -3.438)">
<path style="stroke: none; stroke-width: 1; stroke-dasharray: none; stroke-linecap: butt; stroke-dashoffset: 0; stroke-linejoin: miter; stroke-miterlimit: 4; is-custom-font: none; font-file-url: none; fill: rgb(0,0,0); fill-rule: nonzero; opacity: 1;" transform=" translate(-711.4122, -320.76)" d="M 620 405 c 0 -12 13 -15 60 -15 c 33 0 60 -3 60 -8 c 0 -18 -65 -84 -105 -108 c -29 -16 -42 -30 -38 -40 c 8 -20 15 -18 72 21 c 28 19 53 35 56 35 c 3 0 23 -16 45 -37 c 32 -28 43 -34 53 -24 c 9 10 2 22 -35 54 l -47 42 l 24 39 c 13 22 22 43 19 48 c -3 4 -41 8 -85 8 c -64 0 -79 -3 -79 -15 z" stroke-linecap="round"/>
</g>
		<g transform="matrix(0.1333 0 0 -0.1333 103.8828 -3.5836)">
<path style="stroke: none; stroke-width: 1; stroke-dasharray: none; stroke-linecap: butt; stroke-dashoffset: 0; stroke-linejoin: miter; stroke-miterlimit: 4; is-custom-font: none; font-file-url: none; fill: rgb(0,0,0); fill-rule: nonzero; opacity: 1;" transform=" translate(-2279.1513, -321.8525)" d="M 2180 405 c 0 -10 16 -15 65 -17 l 64 -3 l -32 -42 c -18 -23 -51 -54 -74 -69 c -44 -28 -51 -38 -33 -49 c 12 -7 52 15 90 51 l 25 23 l 46 -39 c 33 -28 49 -36 60 -29 c 11 8 9 14 -13 33 c -15 13 -37 31 -49 40 l -23 16 l 22 39 c 12 21 22 44 22 50 c 0 7 -29 11 -85 11 c -68 0 -85 -3 -85 -15 z" stroke-linecap="round"/>
</g>
		<g transform="matrix(0.1333 0 0 -0.1333 -174.6704 -4.0029)">
<path style="stroke: none; stroke-width: 1; stroke-dasharray: none; stroke-linecap: butt; stroke-dashoffset: 0; stroke-linejoin: miter; stroke-miterlimit: 4; is-custom-font: none; font-file-url: none; fill: rgb(0,0,0); fill-rule: nonzero; opacity: 1;" transform=" translate(-190, -325)" d="M 100 395 c 0 -10 11 -15 35 -15 l 35 0 l 0 -55 l 0 -55 l -45 0 c -33 0 -45 -4 -45 -15 c 0 -12 19 -15 110 -15 c 91 0 110 3 110 15 c 0 11 -12 15 -48 15 l -48 0 l 0 55 l 0 55 l 38 0 c 27 0 38 4 38 15 c 0 12 -17 15 -90 15 c -73 0 -90 -3 -90 -15 z" stroke-linecap="round"/>
</g>
		<g transform="matrix(0.1333 0 0 -0.1333 70.3643 -1.7366)">
<path style="stroke: none; stroke-width: 1; stroke-dasharray: none; stroke-linecap: butt; stroke-dashoffset: 0; stroke-linejoin: miter; stroke-miterlimit: 4; is-custom-font: none; font-file-url: none; fill: rgb(0,0,0); fill-rule: nonzero; opacity: 1;" transform=" translate(-2027.7578, -308.0032)" d="M 2081 367 c -29 -47 -70 -83 -118 -104 c -33 -14 -40 -21 -34 -32 c 8 -13 16 -12 52 5 c 56 25 95 58 125 105 c 28 45 28 45 10 52 c -10 4 -22 -6 -35 -26 z" stroke-linecap="round"/>
</g>
		<g transform="matrix(0.1333 0 0 -0.1333 -40.181 -0.8693)">
<path style="stroke: none; stroke-width: 1; stroke-dasharray: none; stroke-linecap: butt; stroke-dashoffset: 0; stroke-linejoin: miter; stroke-miterlimit: 4; is-custom-font: none; font-file-url: none; fill: rgb(0,0,0); fill-rule: nonzero; opacity: 1;" transform=" translate(-1198.6541, -301.5)" d="M 1210 339 c 0 -33 -6 -47 -32 -70 c -22 -21 -28 -33 -21 -40 c 8 -8 17 -8 30 0 c 33 17 44 38 52 95 c 7 50 6 56 -11 56 c -14 0 -18 -8 -18 -41 z" stroke-linecap="round"/>
</g>
		<g transform="matrix(0.1333 0 0 -0.1333 29.4934 -0.8629)">
<path style="stroke: none; stroke-width: 1; stroke-dasharray: none; stroke-linecap: butt; stroke-dashoffset: 0; stroke-linejoin: miter; stroke-miterlimit: 4; is-custom-font: none; font-file-url: none; fill: rgb(0,0,0); fill-rule: nonzero; opacity: 1;" transform=" translate(-1721.2125, -301.4522)" d="M 1730 339 c 0 -33 -6 -47 -32 -70 c -23 -22 -28 -33 -20 -41 c 8 -8 18 -7 36 6 c 32 20 42 40 50 99 c 7 43 6 47 -13 47 c -18 0 -21 -6 -21 -41 z" stroke-linecap="round"/>
</g>
</g>
</g>
</svg>