<?xml version="1.0" standalone="no"?>
<!DOCTYPE svg PUBLIC "-//W3C//DTD SVG 20010904//EN"
 "http://www.w3.org/TR/2001/REC-SVG-20010904/DTD/svg10.dtd">
<svg version="1.0" xmlns="http://www.w3.org/2000/svg"
 width="300.000000pt" height="59.000000pt" viewBox="0 0 300.000000 59.000000"
 preserveAspectRatio="xMidYMid meet">
<metadata>
Created by potrace 1.10, written by Peter Selinger 2001-2011
</metadata>
<g transform="translate(0.000000,59.000000) scale(0.100000,-0.100000)"
fill="#000000" stroke="none">
<path d="M1043 444 c-3 -8 2 -23 11 -32 15 -15 17 -15 32 0 21 21 11 48 -16
48 -11 0 -23 -7 -27 -16z"/>
<path d="M415 429 c-4 -12 -22 -38 -41 -59 -28 -31 -32 -39 -20 -49 11 -9 20
-4 44 24 25 28 39 35 67 35 24 0 35 -5 35 -15 0 -22 -66 -91 -101 -105 -27
-12 -29 -15 -15 -28 13 -13 18 -12 48 6 46 28 74 60 93 104 24 60 21 68 -29
68 -35 0 -45 4 -49 20 -7 26 -24 26 -32 -1z"/>
<path d="M890 345 c0 -112 3 -115 109 -115 61 0 71 2 71 18 0 15 -10 17 -72
17 -71 0 -73 1 -76 26 -3 25 2 29 60 48 83 28 93 34 75 49 -11 10 -27 7 -71
-13 -31 -14 -59 -25 -61 -25 -3 0 -5 20 -5 45 0 33 -4 45 -15 45 -12 0 -15
-17 -15 -95z"/>
<path d="M1540 377 c0 -71 -15 -101 -61 -120 -21 -9 -26 -16 -20 -26 14 -21
69 5 92 43 25 40 28 166 4 166 -12 0 -15 -14 -15 -63z"/>
<path d="M1130 415 c0 -12 16 -15 86 -15 l86 0 -16 -22 c-23 -32 -29 -48 -22
-55 8 -9 55 36 72 69 18 35 8 38 -112 38 -77 0 -94 -3 -94 -15z"/>
<path d="M1410 365 c0 -58 2 -65 20 -65 18 0 20 7 20 65 0 58 -2 65 -20 65
-18 0 -20 -7 -20 -65z"/>
<path d="M1650 415 c0 -12 16 -15 85 -15 47 0 85 -3 85 -7 0 -4 -9 -17 -21
-29 -20 -21 -19 -44 1 -44 14 0 72 89 65 100 -3 6 -52 10 -111 10 -86 0 -104
-3 -104 -15z"/>
<path d="M1917 423 c-13 -12 -7 -19 33 -45 32 -22 41 -24 50 -13 9 11 3 19
-29 39 -45 29 -45 29 -54 19z"/>
<path d="M620 405 c0 -12 13 -15 60 -15 33 0 60 -3 60 -8 0 -18 -65 -84 -105
-108 -29 -16 -42 -30 -38 -40 8 -20 15 -18 72 21 28 19 53 35 56 35 3 0 23
-16 45 -37 32 -28 43 -34 53 -24 9 10 2 22 -35 54 l-47 42 24 39 c13 22 22 43
19 48 -3 4 -41 8 -85 8 -64 0 -79 -3 -79 -15z"/>
<path d="M2180 405 c0 -10 16 -15 65 -17 l64 -3 -32 -42 c-18 -23 -51 -54 -74
-69 -44 -28 -51 -38 -33 -49 12 -7 52 15 90 51 l25 23 46 -39 c33 -28 49 -36
60 -29 11 8 9 14 -13 33 -15 13 -37 31 -49 40 l-23 16 22 39 c12 21 22 44 22
50 0 7 -29 11 -85 11 -68 0 -85 -3 -85 -15z"/>
<path d="M100 395 c0 -10 11 -15 35 -15 l35 0 0 -55 0 -55 -45 0 c-33 0 -45
-4 -45 -15 0 -12 19 -15 110 -15 91 0 110 3 110 15 0 11 -12 15 -48 15 l-48 0
0 55 0 55 38 0 c27 0 38 4 38 15 0 12 -17 15 -90 15 -73 0 -90 -3 -90 -15z"/>
<path d="M2081 367 c-29 -47 -70 -83 -118 -104 -33 -14 -40 -21 -34 -32 8 -13
16 -12 52 5 56 25 95 58 125 105 28 45 28 45 10 52 -10 4 -22 -6 -35 -26z"/>
<path d="M1210 339 c0 -33 -6 -47 -32 -70 -22 -21 -28 -33 -21 -40 8 -8 17 -8
30 0 33 17 44 38 52 95 7 50 6 56 -11 56 -14 0 -18 -8 -18 -41z"/>
<path d="M1730 339 c0 -33 -6 -47 -32 -70 -23 -22 -28 -33 -20 -41 8 -8 18 -7
36 6 32 20 42 40 50 99 7 43 6 47 -13 47 -18 0 -21 -6 -21 -41z"/>
</g>
</svg>
